<?xml version="1.0" encoding="UTF-8"?>
<svg version="1.1" xmlns="http://www.w3.org/2000/svg" width="38" height="38">
<path d="M0 0 C8.40646438 1.19775482 16.43203905 2.54645516 21.9609375 9.421875 C24.09905907 16.84553934 20.86894934 26.59762945 17.9609375 33.421875 C14.13226484 38.08451596 14.13226484 38.08451596 10.77734375 39.05078125 C2.33034161 38.80190944 -7.25566999 37.52856316 -13.921875 32.0546875 C-16.76331939 28.52123082 -16.69719749 26.7536223 -16.4609375 22.3828125 C-14.94119721 11.71648713 -12.92194507 -0.69848352 0 0 Z " fill="#E603D8" transform="translate(16.0390625,-0.421875)"/>
<path d="M0 0 C4.73590076 1.14586176 9.36166142 2.50289936 14 4 C11.58923344 5.60717771 9.71900755 6.61542515 7.0625 7.625 C6.05896484 8.01558594 6.05896484 8.01558594 5.03515625 8.4140625 C3 9 3 9 -1 9 C-1.20625 9.928125 -1.4125 10.85625 -1.625 11.8125 C-3 15 -3 15 -6.125 16.875 C-7.548125 17.431875 -7.548125 17.431875 -9 18 C-9.66 17.34 -10.32 16.68 -11 16 C-12.98356483 15.28591666 -14.98315437 14.61382258 -17 14 C-16.33489716 9.44354923 -15.54287336 5.83127484 -13 1.9375 C-8.56572079 -0.92630533 -5.14052897 -0.76131032 0 0 Z " fill="#904AE4" transform="translate(19,0)"/>
<path d="M0 0 C2.35171131 0.59861742 4.6859378 1.26924352 7 2 C7.33 2.66 7.66 3.32 8 4 C7.67 4.66 7.34 5.32 7 6 C8.11375 6.0928125 8.11375 6.0928125 9.25 6.1875 C12.87129113 7.25742693 13.98712115 8.86885512 16 12 C16 12.99 16 13.98 16 15 C16.66 15.33 17.32 15.66 18 16 C16.1875 18 16.1875 18 14 20 C13.01 20 12.02 20 11 20 C10.67 20.66 10.34 21.32 10 22 C0.32258065 18.77419355 0.32258065 18.77419355 -2 15 C-2.69694454 9.72823999 -2.54444278 4.7708302 0 0 Z " fill="#FD14A3" transform="translate(2,14)"/>
<path d="M0 0 C0.66 0 1.32 0 2 0 C2.37125 0.928125 2.7425 1.85625 3.125 2.8125 C5.30942959 6.5260303 7.06718759 7.42687504 11 9 C11 9.66 11 10.32 11 11 C10.071875 11.37125 9.14375 11.7425 8.1875 12.125 C4.4739697 14.30942959 3.57312496 16.06718759 2 20 C1.34 20 0.68 20 0 20 C-0.556875 18.88625 -1.11375 17.7725 -1.6875 16.625 C-3.25326802 13.84702448 -3.81895484 13.09463724 -6.75 11.5625 C-7.4925 11.376875 -8.235 11.19125 -9 11 C-9 10.34 -9 9.68 -9 9 C-7.88625 8.443125 -6.7725 7.88625 -5.625 7.3125 C-2.84702448 5.74673198 -2.09463724 5.18104516 -0.5625 2.25 C-0.376875 1.5075 -0.19125 0.765 0 0 Z " fill="#FDF6FC" transform="translate(18,9)"/>
<path d="M0 0 C1.375 2.5625 1.375 2.5625 2 5 C-0.31 4.67 -2.62 4.34 -5 4 C-4.67 4.99 -4.34 5.98 -4 7 C-4.99 7.495 -4.99 7.495 -6 8 C-6.99 7.67 -7.98 7.34 -9 7 C-10.99961564 6.96079185 -13.00049364 6.95556653 -15 7 C-15.33 5.68 -15.66 4.36 -16 3 C-4.93248521 -2.09630622 -4.93248521 -2.09630622 0 0 Z " fill="#B910EE" transform="translate(36,6)"/>
<path d="M0 0 C1.890625 0.33203125 1.890625 0.33203125 4 1 C6.66280693 5.08931064 7.34568576 8.16039934 7 13 C6.01 13.33 5.02 13.66 4 14 C2 12.625 2 12.625 0 10 C-0.35791096 6.6419531 -0.23115823 3.36463643 0 0 Z " fill="#FB4E5D" transform="translate(0,19)"/>
<path d="M0 0 C1.62782811 4.88348434 -0.19624559 9.30200847 -2 14 C-3.52708151 16.24514492 -4.78575836 17.35351263 -7 19 C-7.66 19 -8.32 19 -9 19 C-8.62551669 12.75861148 -7.0466215 10.44141384 -3 6 C-1.76487921 3.86690808 -1.76487921 3.86690808 -1 2 C-0.67 1.34 -0.34 0.68 0 0 Z " fill="#CC00E1" transform="translate(36,19)"/>
<path d="M0 0 C0.86625 -0.00515625 1.7325 -0.0103125 2.625 -0.015625 C5 0.25 5 0.25 8 2.25 C7.24074219 2.44335938 6.48148438 2.63671875 5.69921875 2.8359375 C4.20841797 3.22652344 4.20841797 3.22652344 2.6875 3.625 C1.70136719 3.88023438 0.71523437 4.13546875 -0.30078125 4.3984375 C-3.1805816 5.16913174 -3.1805816 5.16913174 -6 7.25 C-7.32 7.25 -8.64 7.25 -10 7.25 C-8.07704736 1.62906151 -5.94849898 -0.03540773 0 0 Z " fill="#577DEE" transform="translate(14,-0.25)"/>
<path d="M0 0 C0.66 0.33 1.32 0.66 2 1 C1.34 3.31 0.68 5.62 0 8 C-5.21979128 8.1799928 -9.07262981 7.97094808 -14 6 C-14 5.34 -14 4.68 -14 4 C-13.15695312 3.96261719 -12.31390625 3.92523438 -11.4453125 3.88671875 C-9.80175781 3.78810547 -9.80175781 3.78810547 -8.125 3.6875 C-7.03445312 3.62949219 -5.94390625 3.57148437 -4.8203125 3.51171875 C-3.88960937 3.34285156 -2.95890625 3.17398438 -2 3 C-1.34 2.01 -0.68 1.02 0 0 Z " fill="#F11ACA" transform="translate(27,30)"/>
<path d="M0 0 C-1.7015625 0.4021875 -1.7015625 0.4021875 -3.4375 0.8125 C-4.613125 1.204375 -5.78875 1.59625 -7 2 C-7.33 2.99 -7.66 3.98 -8 5 C-10.0625 5.6875 -10.0625 5.6875 -12 6 C-11.67 6.99 -11.34 7.98 -11 9 C-11.66 9 -12.32 9 -13 9 C-13 9.66 -13 10.32 -13 11 C-14.32 10.67 -15.64 10.34 -17 10 C-16.56387363 5.46428571 -16.56387363 5.46428571 -15 3 C-10.32356536 0.33630283 -5.28430808 -1.90335267 0 0 Z " fill="#7866DF" transform="translate(19,4)"/>
<path d="M0 0 C2.35171131 0.59861742 4.6859378 1.26924352 7 2 C7.33 2.66 7.66 3.32 8 4 C7.67 4.66 7.34 5.32 7 6 C7.99 6.33 8.98 6.66 10 7 C7.36 7.66 4.72 8.32 2 9 C2 8.01 2 7.02 2 6 C1.01 5.67 0.02 5.34 -1 5 C-0.67 3.35 -0.34 1.7 0 0 Z " fill="#E74288" transform="translate(2,14)"/>
<path d="M0 0 C-0.125 1.8125 -0.125 1.8125 -1 4 C-4.0625 5.75 -4.0625 5.75 -7 7 C-9 5.625 -9 5.625 -11 4 C-11 3.34 -11 2.68 -11 2 C-7.09100481 -1.10420207 -4.76837457 -1.21981675 0 0 Z " fill="#BA3EC6" transform="translate(17,11)"/>
<path d="M0 0 C0.99 0 1.98 0 3 0 C3.38897161 1.62171239 3.76078298 3.24754925 4.125 4.875 C4.33382813 5.77992187 4.54265625 6.68484375 4.7578125 7.6171875 C4.83773438 8.40351563 4.91765625 9.18984375 5 10 C4.34 10.66 3.68 11.32 3 12 C0.875 11.625 0.875 11.625 -1 11 C-0.67 10.67 -0.34 10.34 0 10 C0.04443347 8.00049364 0.03920815 5.99961564 0 4 C0 2.68 0 1.36 0 0 Z " fill="#FB307D" transform="translate(6,22)"/>
<path d="M0 0 C-2.41076656 1.60717771 -4.28099245 2.61542515 -6.9375 3.625 C-7.60652344 3.88539062 -8.27554687 4.14578125 -8.96484375 4.4140625 C-11 5 -11 5 -15 5 C-15 5.66 -15 6.32 -15 7 C-16.65 6.67 -18.3 6.34 -20 6 C-14.66154277 0.66154277 -7.18798977 -0.16716255 0 0 Z " fill="#A239E9" transform="translate(33,4)"/>
<path d="M0 0 C0 0.33 0 0.66 0 1 C-0.94875 1.28875 -1.8975 1.5775 -2.875 1.875 C-6.05211578 2.76825109 -6.05211578 2.76825109 -8 5 C-10.32275177 5.40047444 -12.65739357 5.7397104 -15 6 C-15 5.01 -15 4.02 -15 3 C-13.4447088 2.29634398 -11.88035173 1.61270622 -10.3125 0.9375 C-9.44238281 0.55464844 -8.57226562 0.17179688 -7.67578125 -0.22265625 C-4.67786136 -1.0935848 -2.96719847 -0.85006226 0 0 Z " fill="#B525EA" transform="translate(35,6)"/>
<path d="M0 0 C0.66 0 1.32 0 2 0 C3.16343227 2.32686453 3.19895988 3.84721413 3.25 6.4375 C3.27578125 7.21996094 3.3015625 8.00242187 3.328125 8.80859375 C2.92823089 11.47931509 2.05300878 12.31977439 0 14 C-0.66 13.67 -1.32 13.34 -2 13 C-1.34 12.34 -0.68 11.68 0 11 C-0.01589033 8.58326694 -0.01589033 8.58326694 -0.4375 5.9375 C-0.66120714 4.29619603 -0.85737905 2.65032811 -1 1 C-0.67 0.67 -0.34 0.34 0 0 Z " fill="#FC208E" transform="translate(10,21)"/>
<path d="M0 0 C-2.39763185 2.39763185 -3.33273498 2.34280586 -6.625 2.625 C-7.44226563 2.69976562 -8.25953125 2.77453125 -9.1015625 2.8515625 C-9.72804688 2.90054687 -10.35453125 2.94953125 -11 3 C-10.67 2.01 -10.34 1.02 -10 0 C-6.7169902 -1.6415049 -3.57454967 -0.51888624 0 0 Z M-13 3 C-12.34 3.33 -11.68 3.66 -11 4 C-11.99 4 -12.98 4 -14 4 C-13.67 3.67 -13.34 3.34 -13 3 Z " fill="#656CF3" transform="translate(22,1)"/>
<path d="M0 0 C0.99 0.33 1.98 0.66 3 1 C3 1.66 3 2.32 3 3 C3.66 3 4.32 3 5 3 C5 4.65 5 6.3 5 8 C3.68 7.67 2.36 7.34 1 7 C0.67 4.69 0.34 2.38 0 0 Z " fill="#FC6445" transform="translate(0,24)"/>
<path d="M0 0 C-1.33934244 2.67868487 -2.51692397 2.74954078 -5.3125 3.6875 C-6.09238281 3.95949219 -6.87226563 4.23148437 -7.67578125 4.51171875 C-10.18274511 5.03839183 -11.60132343 4.8178554 -14 4 C-9.22642128 1.28608722 -5.65611463 -0.56561146 0 0 Z " fill="#8153EF" transform="translate(26,2)"/>
<path d="M0 0 C1.98 0.99 1.98 0.99 4 2 C4.25 7.625 4.25 7.625 2 11 C1.34 10.67 0.68 10.34 0 10 C0.33 9.67 0.66 9.34 1 9 C1.14636054 5.63370749 1.07193479 3.21580438 0 0 Z " fill="#FD3D6E" transform="translate(5,23)"/>
<path d="M0 0 C0 3.20395416 -0.74335022 5.09399739 -2 8 C-2.66 8 -3.32 8 -4 8 C-3.67 5.69 -3.34 3.38 -3 1 C-2.01 0.67 -1.02 0.34 0 0 Z " fill="#DB00D5" transform="translate(31,30)"/>
<path d="M0 0 C1.32 0.66 2.64 1.32 4 2 C3.34 3.32 2.68 4.64 2 6 C1.01 5.67 0.02 5.34 -1 5 C-0.67 3.35 -0.34 1.7 0 0 Z " fill="#C0608C" transform="translate(2,14)"/>
<path d="M0 0 C2.375 -0.125 2.375 -0.125 5 0 C7 2 7 2 7 5 C3.34683329 3.75023244 2.21934164 3.32901247 0 0 Z " fill="#E518DE" transform="translate(21,13)"/>
<path d="M0 0 C1.32 0 2.64 0 4 0 C4.33 0.99 4.66 1.98 5 3 C4.34 3 3.68 3 3 3 C3 3.66 3 4.32 3 5 C1.68 4.67 0.36 4.34 -1 4 C-0.67 2.68 -0.34 1.36 0 0 Z " fill="#9965B5" transform="translate(3,10)"/>
<path d="M0 0 C2.01822917 0.06510417 4.03645833 0.13020833 6.0546875 0.1953125 C6.0546875 1.1853125 6.0546875 2.1753125 6.0546875 3.1953125 C5.5184375 3.0303125 4.9821875 2.8653125 4.4296875 2.6953125 C1.59582741 2.09871038 -1.0572931 2.1296757 -3.9453125 2.1953125 C-1.9453125 0.1953125 -1.9453125 0.1953125 0 0 Z " fill="#D010E3" transform="translate(24.9453125,10.8046875)"/>
<path d="M0 0 C0.33 0.99 0.66 1.98 1 3 C1.66 3.33 2.32 3.66 3 4 C1.68 5.32 0.36 6.64 -1 8 C-1.99 7.67 -2.98 7.34 -4 7 C-3.525625 6.5875 -3.05125 6.175 -2.5625 5.75 C-0.83733482 3.817815 -0.43415125 2.51807725 0 0 Z " fill="#FF0FB4" transform="translate(17,26)"/>
<path d="M0 0 C1.32 0.66 2.64 1.32 4 2 C3.67 2.99 3.34 3.98 3 5 C1.68 4.67 0.36 4.34 -1 4 C-0.67 2.68 -0.34 1.36 0 0 Z " fill="#CE459D" transform="translate(6,15)"/>
<path d="M0 0 C1.32 0.33 2.64 0.66 4 1 C3.67 2.65 3.34 4.3 3 6 C2.01 5.67 1.02 5.34 0 5 C0 3.35 0 1.7 0 0 Z " fill="#E26263" transform="translate(0,19)"/>
</svg>
