<svg width="20" height="20" viewBox="0 0 20 20" fill="none" xmlns="http://www.w3.org/2000/svg">
<path opacity="0.4" d="M14.2757 19.1572H5.72368C4.3977 19.2396 3.09553 18.7799 2.1157 17.8843C1.22011 16.9036 0.760418 15.6015 0.842834 14.2764V5.72357C0.760418 4.39852 1.2192 3.09636 2.11478 2.11563C3.09553 1.22005 4.3977 0.760358 5.72368 0.842772H14.2757C15.5998 0.760358 16.9011 1.21913 17.8809 2.11471C18.7756 3.09636 19.2362 4.3976 19.1574 5.72357V14.2764C19.2389 15.6015 18.7802 16.9036 17.8846 17.8843C16.9038 18.7799 15.6017 19.2396 14.2757 19.1572Z" fill="#56555C"/>
<path d="M14.6334 8.53108L8.62666 14.5677C8.31428 14.8717 7.90372 15.0416 7.4753 15.0416H5.37786C5.26183 15.0416 5.15473 14.9969 5.0744 14.9164C4.99408 14.836 4.95837 14.7286 4.95837 14.6124L5.01193 12.4929C5.02085 12.0725 5.19043 11.679 5.48497 11.3839L9.74232 7.11807C9.81373 7.04652 9.93868 7.04652 10.0101 7.11807L11.5033 8.6053C11.6015 8.70278 11.7443 8.76628 11.896 8.76628C12.2262 8.76628 12.4851 8.49799 12.4851 8.17604C12.4851 8.01506 12.4226 7.87197 12.3244 7.76465C12.2976 7.72888 10.8758 6.31319 10.8758 6.31319C10.7866 6.22376 10.7866 6.07173 10.8758 5.9823L11.4738 5.37417C12.0272 4.8197 12.9197 4.8197 13.4731 5.37417L14.6334 6.53677C15.1778 7.0823 15.1778 7.97661 14.6334 8.53108Z" fill="#56555C"/>
</svg>
