<svg width="20" height="20" viewBox="0 0 20 20" fill="none" xmlns="http://www.w3.org/2000/svg">
<path fill-rule="evenodd" clip-rule="evenodd" d="M13.9728 0.833313C17.0794 0.833313 19.1666 3.01315 19.1666 6.25631V13.7436C19.1666 16.9868 17.0794 19.1666 13.9719 19.1666H6.02623C2.91965 19.1666 0.833313 16.9868 0.833313 13.7436V6.25631C0.833313 3.01315 2.91965 0.833313 6.02623 0.833313H13.9728ZM13.9728 2.20831H6.02623C3.70706 2.20831 2.20831 3.7969 2.20831 6.25631V13.7436C2.20831 16.2031 3.70706 17.7916 6.02623 17.7916H13.9719C16.292 17.7916 17.7916 16.2031 17.7916 13.7436V6.25631C17.7916 3.7969 16.2929 2.20831 13.9728 2.20831ZM9.99916 5.30995C10.3787 5.30995 10.6867 5.61795 10.6867 5.99745V9.60545L13.4605 11.2582C13.7859 11.4534 13.8932 11.8751 13.6988 12.2014C13.5696 12.4169 13.3413 12.5369 13.1076 12.5369C12.9875 12.5369 12.8665 12.5058 12.7556 12.4407L9.64715 10.5863C9.43999 10.4616 9.31166 10.237 9.31166 9.99595V5.99745C9.31166 5.61795 9.61965 5.30995 9.99916 5.30995Z" fill="#56555C"/>
</svg>
