<svg width="22" height="22" viewBox="0 0 22 22" fill="none" xmlns="http://www.w3.org/2000/svg">
<path opacity="0.4" d="M19.5534 6.82232C19.1693 6.58035 18.6972 6.55895 18.2948 6.76369L16.9363 7.44956C16.4339 7.70269 16.1223 8.21453 16.1223 8.78408V14.1315C16.1223 14.701 16.4339 15.2119 16.9363 15.4669L18.2939 16.1518C18.4781 16.2468 18.6752 16.2924 18.8723 16.2924C19.1088 16.2924 19.3435 16.2254 19.5534 16.0941C19.9375 15.8531 20.1666 15.4353 20.1666 14.9774V7.94C20.1666 7.48213 19.9375 7.06428 19.5534 6.82232Z" fill="#56555C"/>
<path d="M10.913 18.3333H5.6036C3.38341 18.3333 1.83331 16.8024 1.83331 14.6108V8.30582C1.83331 6.11326 3.38341 4.58331 5.6036 4.58331H10.913C13.1332 4.58331 14.6833 6.11326 14.6833 8.30582V14.6108C14.6833 16.8024 13.1332 18.3333 10.913 18.3333Z" fill="#56555C"/>
</svg>
