<svg width="22" height="22" viewBox="0 0 22 22" fill="none" xmlns="http://www.w3.org/2000/svg">
<path d="M15.1376 2.75C18.2966 2.75 20.1634 4.56374 20.1634 7.64304V7.6772H16.2816C14.4752 7.68038 13.0118 9.10722 13.0085 10.8685C13.0061 12.6338 14.4711 14.067 16.2816 14.0694H20.1666V14.3498C20.1666 17.4291 18.2999 19.25 15.1409 19.25H6.85991C3.70005 19.25 1.83331 17.4291 1.83331 14.3498V7.64304C1.83331 4.56374 3.70005 2.75 6.85991 2.75H15.1376ZM11.3512 6.30199H6.17791C5.79331 6.30359 5.48124 6.60787 5.4796 6.98364C5.47798 7.36101 5.79087 7.66846 6.17791 7.67005H11.3577C11.7447 7.66846 12.0576 7.36101 12.056 6.98285C12.0544 6.60548 11.7382 6.30041 11.3512 6.30199Z" fill="#56555C"/>
<path opacity="0.4" d="M14.7009 11.272C14.8926 12.1439 15.6571 12.7573 16.5298 12.7414H19.5089C19.8721 12.7414 20.1666 12.4406 20.1666 12.0689V9.7483C20.1658 9.37735 19.8721 9.07581 19.5089 9.07501H16.4597C15.4669 9.0782 14.6651 9.90226 14.6666 10.9178C14.6666 11.0366 14.6783 11.1555 14.7009 11.272Z" fill="#56555C"/>
<path d="M16.5 11.825C17.0062 11.825 17.4166 11.4146 17.4166 10.9083C17.4166 10.402 17.0062 9.99164 16.5 9.99164C15.9937 9.99164 15.5833 10.402 15.5833 10.9083C15.5833 11.4146 15.9937 11.825 16.5 11.825Z" fill="#56555C"/>
</svg>
